<svg width="71" height="54" viewBox="0 0 71 54" fill="none" xmlns="http://www.w3.org/2000/svg">
<g clip-path="url(#clip0_1_934)">
<path d="M5.17116 53.1345H16.3075V26.089L0.398438 14.1572V48.3618C0.398438 51.0027 2.53821 53.1345 5.17116 53.1345Z" fill="#4285F4"/>
<path d="M54.4893 53.1345H65.6256C68.2665 53.1345 70.3983 50.9947 70.3983 48.3618V14.1572L54.4893 26.089" fill="#34A853"/>
<path d="M54.4893 5.40736V26.0892L70.3983 14.1574V7.79372C70.3983 1.89145 63.6608 -1.47332 58.9438 2.06645" fill="#FBBC04"/>
<path d="M16.3076 26.089V5.40723L35.3985 19.7254L54.4894 5.40723V26.089L35.3985 40.4072" fill="#EA4335"/>
<path d="M0.398438 7.79372V14.1574L16.3075 26.0892V5.40736L11.853 2.06645C7.12798 -1.47332 0.398438 1.89145 0.398438 7.79372Z" fill="#C5221F"/>
</g>
<defs>
<clipPath id="clip0_1_934">
<rect width="70" height="52.5" fill="white" transform="translate(0.398438 0.634766)"/>
</clipPath>
</defs>
</svg>
