<svg width="71" height="71" viewBox="0 0 71 71" fill="none" xmlns="http://www.w3.org/2000/svg">
<path d="M35.4099 0.634766C20.7977 0.634766 16.5242 0.64984 15.6935 0.71875C12.6948 0.968011 10.8289 1.44015 8.79602 2.45227C7.22939 3.2302 5.99386 4.13195 4.77447 5.39602C2.55373 7.70128 1.20783 10.5374 0.720616 13.9086C0.483738 15.5452 0.414828 15.879 0.40083 24.2386C0.395447 27.0252 0.40083 30.6925 0.40083 35.6115C0.40083 50.2118 0.416981 54.481 0.486968 55.3101C0.72923 58.228 1.18684 60.0638 2.15588 62.0719C4.00784 65.9158 7.54487 68.8014 11.7118 69.8781C13.1546 70.2496 14.7481 70.4542 16.7939 70.5511C17.6607 70.5888 26.4952 70.6157 35.335 70.6157C44.1749 70.6157 53.0148 70.6049 53.86 70.5619C56.2288 70.4504 57.6043 70.2657 59.1252 69.8727C61.1913 69.3429 63.1168 68.3684 64.7673 67.0173C66.4179 65.6662 67.7535 63.9711 68.6811 62.0504C69.6313 60.0907 70.1131 58.1849 70.3311 55.4194C70.3785 54.8164 70.3984 45.2029 70.3984 35.6023C70.3984 26.0002 70.3769 16.4044 70.3295 15.8015C70.1088 12.9912 69.627 11.1016 68.6461 9.10425C67.8412 7.46925 66.9475 6.24825 65.6501 4.99979C63.3351 2.78821 60.5034 1.44231 57.1284 0.955628C55.4934 0.719288 55.1677 0.649301 46.8016 0.634766H35.4099Z" fill="url(#paint0_radial_1_941)"/>
<path d="M35.4099 0.634766C20.7977 0.634766 16.5242 0.64984 15.6935 0.71875C12.6948 0.968011 10.8289 1.44015 8.79602 2.45227C7.22939 3.2302 5.99386 4.13195 4.77447 5.39602C2.55373 7.70128 1.20783 10.5374 0.720616 13.9086C0.483738 15.5452 0.414828 15.879 0.40083 24.2386C0.395447 27.0252 0.40083 30.6925 0.40083 35.6115C0.40083 50.2118 0.416981 54.481 0.486968 55.3101C0.72923 58.228 1.18684 60.0638 2.15588 62.0719C4.00784 65.9158 7.54487 68.8014 11.7118 69.8781C13.1546 70.2496 14.7481 70.4542 16.7939 70.5511C17.6607 70.5888 26.4952 70.6157 35.335 70.6157C44.1749 70.6157 53.0148 70.6049 53.86 70.5619C56.2288 70.4504 57.6043 70.2657 59.1252 69.8727C61.1913 69.3429 63.1168 68.3684 64.7673 67.0173C66.4179 65.6662 67.7535 63.9711 68.6811 62.0504C69.6313 60.0907 70.1131 58.1849 70.3311 55.4194C70.3785 54.8164 70.3984 45.2029 70.3984 35.6023C70.3984 26.0002 70.3769 16.4044 70.3295 15.8015C70.1088 12.9912 69.627 11.1016 68.6461 9.10425C67.8412 7.46925 66.9475 6.24825 65.6501 4.99979C63.3351 2.78821 60.5034 1.44231 57.1284 0.955628C55.4934 0.719288 55.1677 0.649301 46.8016 0.634766H35.4099Z" fill="url(#paint1_radial_1_941)"/>
<path d="M35.3937 9.78711C28.3756 9.78711 27.4949 9.8178 24.7385 9.94323C21.9874 10.0692 20.1096 10.5047 18.4666 11.1438C16.767 11.8038 15.3252 12.6867 13.8889 14.1236C12.4515 15.5599 11.5686 17.0017 10.9064 18.7007C10.2657 20.3444 9.82965 22.2227 9.70583 24.9726C9.58308 27.729 9.55078 28.6103 9.55078 35.6284C9.55078 42.6465 9.58201 43.5245 9.70691 46.2809C9.83342 49.032 10.269 50.9098 10.9074 52.5528C11.568 54.2524 12.4509 55.6942 13.8878 57.1305C15.3236 58.5679 16.7653 59.453 18.4639 60.113C20.108 60.7521 21.9864 61.1876 24.7368 61.3136C27.4933 61.439 28.3735 61.4697 35.391 61.4697C42.4096 61.4697 43.2877 61.439 46.0441 61.3136C48.7951 61.1876 50.675 60.7521 52.3192 60.113C54.0183 59.453 55.4578 58.5679 56.8937 57.1305C58.3311 55.6942 59.214 54.2524 59.8762 52.5534C60.5114 50.9098 60.9475 49.0314 61.0767 46.2815C61.2005 43.5251 61.2328 42.6465 61.2328 35.6284C61.2328 28.6103 61.2005 27.7296 61.0767 24.9732C60.9475 22.2222 60.5114 20.3444 59.8762 18.7013C59.214 17.0017 58.3311 15.5599 56.8937 14.1236C55.4562 12.6862 54.0188 11.8033 52.3176 11.1438C50.6702 10.5047 48.7913 10.0692 46.0403 9.94323C43.2839 9.8178 42.4064 9.78711 35.3862 9.78711H35.3937ZM33.0755 14.4439C33.7635 14.4428 34.5312 14.4439 35.3937 14.4439C42.2933 14.4439 43.1111 14.4687 45.8357 14.5925C48.3553 14.7077 49.7227 15.1287 50.6336 15.4824C51.8395 15.9508 52.6993 16.5107 53.6032 17.4151C54.5076 18.3196 55.0675 19.181 55.537 20.3869C55.8907 21.2967 56.3122 22.6642 56.4269 25.1837C56.5507 27.9078 56.5776 28.7261 56.5776 35.6225C56.5776 42.5189 56.5507 43.3372 56.4269 46.0613C56.3117 48.5808 55.8907 49.9483 55.537 50.8581C55.0686 52.064 54.5076 52.9227 53.6032 53.8266C52.6987 54.731 51.8401 55.2909 50.6336 55.7593C49.7238 56.1146 48.3553 56.5346 45.8357 56.6498C43.1116 56.7736 42.2933 56.8005 35.3937 56.8005C28.4935 56.8005 27.6758 56.7736 24.9517 56.6498C22.4321 56.5335 21.0647 56.1125 20.1532 55.7588C18.9473 55.2904 18.0859 54.7305 17.1815 53.8261C16.2771 52.9216 15.7172 52.0624 15.2477 50.8559C14.894 49.9461 14.4725 48.5787 14.3578 46.0591C14.234 43.335 14.2092 42.5167 14.2092 35.616C14.2092 28.7153 14.234 27.9013 14.3578 25.1772C14.473 22.6577 14.894 21.2903 15.2477 20.3793C15.7161 19.1734 16.2771 18.312 17.1815 17.4076C18.0859 16.5032 18.9473 15.9433 20.1532 15.4738C21.0642 15.1185 22.4321 14.6986 24.9517 14.5828C27.3355 14.4752 28.2593 14.4429 33.0755 14.4375V14.4439ZM49.1876 18.7347C48.5742 18.7347 47.9746 18.9166 47.4646 19.2573C46.9547 19.5981 46.5572 20.0825 46.3225 20.6492C46.0879 21.2159 46.0265 21.8394 46.1463 22.441C46.266 23.0425 46.5614 23.5951 46.9952 24.0287C47.429 24.4623 47.9817 24.7576 48.5833 24.8771C49.1848 24.9966 49.8084 24.9351 50.375 24.7002C50.9416 24.4653 51.4258 24.0677 51.7664 23.5576C52.107 23.0475 52.2887 22.4479 52.2885 21.8345C52.2885 20.1226 50.8995 18.7336 49.1876 18.7336V18.7347ZM35.3937 22.3578C28.065 22.3578 22.1231 28.2997 22.1231 35.6284C22.1231 42.9571 28.065 48.8963 35.3937 48.8963C42.7224 48.8963 48.6627 42.9571 48.6627 35.6284C48.6627 28.2997 42.7219 22.3578 35.3932 22.3578H35.3937ZM35.3937 27.0146C40.1506 27.0146 44.0075 30.8709 44.0075 35.6284C44.0075 40.3854 40.1506 44.2422 35.3937 44.2422C30.6362 44.2422 26.7799 40.3854 26.7799 35.6284C26.7799 30.8709 30.6362 27.0146 35.3937 27.0146Z" fill="white"/>
<defs>
<radialGradient id="paint0_radial_1_941" cx="0" cy="0" r="1" gradientUnits="userSpaceOnUse" gradientTransform="translate(18.9923 76.0057) rotate(-90) scale(69.3563 64.5244)">
<stop stop-color="#FFDD55"/>
<stop offset="0.1" stop-color="#FFDD55"/>
<stop offset="0.5" stop-color="#FF543E"/>
<stop offset="1" stop-color="#C837AB"/>
</radialGradient>
<radialGradient id="paint1_radial_1_941" cx="0" cy="0" r="1" gradientUnits="userSpaceOnUse" gradientTransform="translate(-11.3269 5.67607) rotate(78.6776) scale(31.0029 127.827)">
<stop stop-color="#3771C8"/>
<stop offset="0.128" stop-color="#3771C8"/>
<stop offset="1" stop-color="#6600FF" stop-opacity="0"/>
</radialGradient>
</defs>
</svg>
