<svg width="71" height="71" viewBox="0 0 71 71" fill="none" xmlns="http://www.w3.org/2000/svg">
<g clip-path="url(#clip0_1_929)">
<path d="M35.3984 70.6348C54.7284 70.6348 70.3984 54.9647 70.3984 35.6348C70.3984 16.3048 54.7284 0.634766 35.3984 0.634766C16.0685 0.634766 0.398438 16.3048 0.398438 35.6348C0.398438 54.9647 16.0685 70.6348 35.3984 70.6348Z" fill="#2AABEE"/>
<path fill-rule="evenodd" clip-rule="evenodd" d="M16.2419 35.2656C26.4451 30.8202 33.2488 27.8896 36.6531 26.4736C46.373 22.4308 48.3927 21.7285 49.7091 21.7053C49.9986 21.7002 50.646 21.772 51.0654 22.1122C51.4194 22.3996 51.5169 22.7877 51.5635 23.0601C51.6101 23.3325 51.6682 23.953 51.622 24.4379C51.0953 29.9723 48.8162 43.4026 47.6567 49.6011C47.166 52.224 46.2 53.1034 45.2647 53.1895C43.2322 53.3765 41.6888 51.8462 39.7202 50.5558C36.6398 48.5365 34.8995 47.2795 31.9094 45.3091C28.4538 43.0319 30.6939 41.7803 32.6633 39.7349C33.1787 39.1996 42.134 31.054 42.3073 30.3151C42.329 30.2227 42.3491 29.8782 42.1444 29.6963C41.9398 29.5144 41.6377 29.5766 41.4198 29.6261C41.1108 29.6962 36.1898 32.9488 26.6566 39.384C25.2597 40.3432 23.9945 40.8105 22.861 40.786C21.6113 40.759 19.2074 40.0794 17.4204 39.4985C15.2285 38.786 13.4864 38.4094 13.6381 37.1993C13.7171 36.5691 14.5851 35.9245 16.2419 35.2656Z" fill="white"/>
</g>
<defs>
<clipPath id="clip0_1_929">
<rect width="70" height="70" fill="white" transform="translate(0.398438 0.634766)"/>
</clipPath>
</defs>
</svg>
