<svg width="71" height="71" viewBox="0 0 71 71" fill="none" xmlns="http://www.w3.org/2000/svg">
<g clip-path="url(#clip0_1_946)">
<path d="M0.398438 34.2348C0.398438 18.3955 0.398438 10.476 5.31904 5.55537C10.2397 0.634766 18.1592 0.634766 33.9984 0.634766H36.7984C52.6377 0.634766 60.5572 0.634766 65.4779 5.55537C70.3984 10.476 70.3984 18.3955 70.3984 34.2348V37.0348C70.3984 52.874 70.3984 60.7935 65.4779 65.7142C60.5572 70.6348 52.6377 70.6348 36.7984 70.6348H33.9984C18.1592 70.6348 10.2397 70.6348 5.31904 65.7142C0.398438 60.7935 0.398438 52.874 0.398438 37.0348V34.2348Z" fill="#0077FF"/>
<path d="M37.6441 51.0643C21.69 51.0643 12.5901 40.1268 12.2109 21.9268H20.2026C20.4651 35.2851 26.3566 40.9434 31.0233 42.1101V21.9268H38.5486V33.4476C43.1569 32.9518 47.998 27.7018 49.6313 21.9268H57.1565C55.9023 29.0434 50.6523 34.2934 46.919 36.4518C50.6523 38.2018 56.6318 42.7809 58.9068 51.0643H50.6231C48.844 45.5226 44.4111 41.2351 38.5486 40.6518V51.0643H37.6441Z" fill="white"/>
</g>
<defs>
<clipPath id="clip0_1_946">
<rect width="70" height="70" fill="white" transform="translate(0.398438 0.634766)"/>
</clipPath>
</defs>
</svg>
