<svg width="26" height="26" viewBox="0 0 26 26" fill="none" xmlns="http://www.w3.org/2000/svg">
<path fill-rule="evenodd" clip-rule="evenodd" d="M25.2852 2.8202C25.8425 2.27781 25.8425 1.39841 25.2852 0.856015C24.7279 0.31362 23.8244 0.31362 23.2671 0.856015L12.8599 10.985L2.4527 0.856015C1.89541 0.31362 0.991861 0.31362 0.434571 0.856015C-0.122719 1.39841 -0.122719 2.27781 0.434571 2.8202L10.8418 12.9492L0.434569 23.0782C-0.122721 23.6206 -0.122721 24.5 0.434569 25.0424C0.99186 25.5848 1.89541 25.5848 2.4527 25.0424L12.8599 14.9134L23.2671 25.0424C23.8244 25.5848 24.7279 25.5848 25.2852 25.0424C25.8425 24.5 25.8425 23.6206 25.2852 23.0782L14.878 12.9492L25.2852 2.8202Z" fill="white" fill-opacity="1"/>
</svg>
