<svg width="26" height="26" viewBox="0 0 26 26" fill="none" xmlns="http://www.w3.org/2000/svg">
<path fill-rule="evenodd" clip-rule="evenodd" d="M13.208 25.9492C6.30445 25.9492 0.708008 20.3528 0.708008 13.4492C0.708008 6.54566 6.30445 0.949219 13.208 0.949219C20.1116 0.949219 25.708 6.54566 25.708 13.4492C25.708 20.3528 20.1116 25.9492 13.208 25.9492ZM13.208 3.44922C7.68516 3.44922 3.20801 7.92637 3.20801 13.4492C3.20801 18.9721 7.68516 23.4492 13.208 23.4492C18.7309 23.4492 23.208 18.9721 23.208 13.4492C23.208 7.92637 18.7309 3.44922 13.208 3.44922ZM13.208 11.8867C14.071 11.8867 14.7705 12.5863 14.7705 13.4492V18.4492C14.7705 19.3122 14.071 20.0117 13.208 20.0117C12.3451 20.0117 11.6455 19.3122 11.6455 18.4492V13.4492C11.6455 12.5863 12.3451 11.8867 13.208 11.8867ZM13.208 7.19922C12.3451 7.19922 11.6455 7.89877 11.6455 8.76172C11.6455 9.62466 12.3451 10.3242 13.208 10.3242C14.071 10.3242 14.7705 9.62466 14.7705 8.76172C14.7705 7.89877 14.071 7.19922 13.208 7.19922Z" fill="white" fill-opacity="1"/>
</svg>
