<svg width="238" height="45" viewBox="0 0 238 45" fill="none" xmlns="http://www.w3.org/2000/svg">
<g filter="url(#filter0_d_1_1987)">
<path d="M26.4489 0.590908H32.7727V23.3977C32.7727 25.8977 32.1818 28.0966 31 29.9943C29.8295 31.892 28.1818 33.375 26.0568 34.4432C23.9318 35.5 21.4489 36.0284 18.608 36.0284C15.7557 36.0284 13.267 35.5 11.142 34.4432C9.01705 33.375 7.36932 31.892 6.19886 29.9943C5.02841 28.0966 4.44318 25.8977 4.44318 23.3977V0.590908H10.767V22.8693C10.767 24.3239 11.0852 25.6193 11.7216 26.7557C12.3693 27.892 13.2784 28.7841 14.4489 29.4318C15.6193 30.0682 17.0057 30.3864 18.608 30.3864C20.2102 30.3864 21.5966 30.0682 22.767 29.4318C23.9489 28.7841 24.858 27.892 25.4943 26.7557C26.1307 25.6193 26.4489 24.3239 26.4489 22.8693V0.590908ZM39.6463 35.5V0.590908H52.7372C55.419 0.590908 57.669 1.09091 59.4872 2.09091C61.3168 3.09091 62.6974 4.46591 63.6293 6.21591C64.5724 7.95454 65.044 9.93182 65.044 12.1477C65.044 14.3864 64.5724 16.375 63.6293 18.1136C62.6861 19.8523 61.294 21.2216 59.4531 22.2216C57.6122 23.2102 55.3452 23.7045 52.652 23.7045H43.9759V18.5057H51.7997C53.3679 18.5057 54.652 18.233 55.652 17.6875C56.652 17.142 57.3906 16.392 57.8679 15.4375C58.3565 14.483 58.6009 13.3864 58.6009 12.1477C58.6009 10.9091 58.3565 9.81818 57.8679 8.875C57.3906 7.93182 56.6463 7.19886 55.6349 6.67614C54.6349 6.14205 53.3452 5.875 51.7656 5.875H45.9702V35.5H39.6463Z" fill="white"/>
<path d="M70.5369 35.5V0.590908H83.9006C86.4233 0.590908 88.5199 0.988635 90.1903 1.78409C91.8722 2.56818 93.1278 3.64205 93.9574 5.00568C94.7983 6.36932 95.2188 7.91477 95.2188 9.64205C95.2188 11.0625 94.946 12.2784 94.4006 13.2898C93.8551 14.2898 93.1222 15.1023 92.2017 15.7273C91.2812 16.3523 90.2528 16.8011 89.1165 17.0739V17.4148C90.3551 17.483 91.5426 17.8636 92.679 18.5568C93.8267 19.2386 94.7642 20.2045 95.4915 21.4545C96.2188 22.7045 96.5824 24.2159 96.5824 25.9886C96.5824 27.7955 96.1449 29.4205 95.2699 30.8636C94.3949 32.2955 93.0767 33.4261 91.3153 34.2557C89.554 35.0852 87.3381 35.5 84.6676 35.5H70.5369ZM76.8608 30.2159H83.6619C85.9574 30.2159 87.6108 29.7784 88.6222 28.9034C89.6449 28.017 90.1562 26.8807 90.1562 25.4943C90.1562 24.4602 89.9006 23.5284 89.3892 22.6989C88.8778 21.858 88.1506 21.1989 87.2074 20.7216C86.2642 20.233 85.1392 19.9886 83.8324 19.9886H76.8608V30.2159ZM76.8608 15.4375H83.1165C84.2074 15.4375 85.1903 15.2386 86.0653 14.8409C86.9403 14.4318 87.6278 13.858 88.1278 13.1193C88.6392 12.3693 88.8949 11.483 88.8949 10.4602C88.8949 9.10795 88.4176 7.99432 87.4631 7.11932C86.5199 6.24432 85.1165 5.80682 83.2528 5.80682H76.8608V15.4375ZM133.277 18.0455C133.277 21.8068 132.572 25.0284 131.163 27.7102C129.766 30.3807 127.857 32.4261 125.436 33.8466C123.027 35.267 120.294 35.9773 117.237 35.9773C114.18 35.9773 111.442 35.267 109.021 33.8466C106.612 32.4148 104.703 30.3636 103.294 27.6932C101.896 25.0114 101.197 21.7955 101.197 18.0455C101.197 14.2841 101.896 11.0682 103.294 8.39773C104.703 5.71591 106.612 3.66477 109.021 2.24432C111.442 0.823862 114.18 0.113635 117.237 0.113635C120.294 0.113635 123.027 0.823862 125.436 2.24432C127.857 3.66477 129.766 5.71591 131.163 8.39773C132.572 11.0682 133.277 14.2841 133.277 18.0455ZM126.919 18.0455C126.919 15.3977 126.504 13.1648 125.675 11.3466C124.857 9.51705 123.72 8.13636 122.266 7.20455C120.811 6.26136 119.135 5.78977 117.237 5.78977C115.339 5.78977 113.663 6.26136 112.209 7.20455C110.754 8.13636 109.612 9.51705 108.783 11.3466C107.964 13.1648 107.555 15.3977 107.555 18.0455C107.555 20.6932 107.964 22.9318 108.783 24.7614C109.612 26.5795 110.754 27.9602 112.209 28.9034C113.663 29.8352 115.339 30.3011 117.237 30.3011C119.135 30.3011 120.811 29.8352 122.266 28.9034C123.72 27.9602 124.857 26.5795 125.675 24.7614C126.504 22.9318 126.919 20.6932 126.919 18.0455ZM170.449 18.0455C170.449 21.8068 169.744 25.0284 168.335 27.7102C166.938 30.3807 165.028 32.4261 162.608 33.8466C160.199 35.267 157.466 35.9773 154.409 35.9773C151.352 35.9773 148.614 35.267 146.193 33.8466C143.784 32.4148 141.875 30.3636 140.466 27.6932C139.068 25.0114 138.369 21.7955 138.369 18.0455C138.369 14.2841 139.068 11.0682 140.466 8.39773C141.875 5.71591 143.784 3.66477 146.193 2.24432C148.614 0.823862 151.352 0.113635 154.409 0.113635C157.466 0.113635 160.199 0.823862 162.608 2.24432C165.028 3.66477 166.938 5.71591 168.335 8.39773C169.744 11.0682 170.449 14.2841 170.449 18.0455ZM164.091 18.0455C164.091 15.3977 163.676 13.1648 162.847 11.3466C162.028 9.51705 160.892 8.13636 159.438 7.20455C157.983 6.26136 156.307 5.78977 154.409 5.78977C152.511 5.78977 150.835 6.26136 149.381 7.20455C147.926 8.13636 146.784 9.51705 145.955 11.3466C145.136 13.1648 144.727 15.3977 144.727 18.0455C144.727 20.6932 145.136 22.9318 145.955 24.7614C146.784 26.5795 147.926 27.9602 149.381 28.9034C150.835 29.8352 152.511 30.3011 154.409 30.3011C156.307 30.3011 157.983 29.8352 159.438 28.9034C160.892 27.9602 162.028 26.5795 162.847 24.7614C163.676 22.9318 164.091 20.6932 164.091 18.0455ZM195.399 10.1875C195.24 8.69886 194.57 7.53977 193.388 6.71023C192.217 5.88068 190.695 5.46591 188.82 5.46591C187.501 5.46591 186.371 5.66477 185.428 6.0625C184.484 6.46023 183.763 7 183.263 7.68182C182.763 8.36364 182.507 9.14205 182.496 10.017C182.496 10.7443 182.661 11.375 182.99 11.9091C183.331 12.4432 183.791 12.8977 184.371 13.2727C184.95 13.6364 185.592 13.9432 186.297 14.1932C187.001 14.4432 187.712 14.6534 188.428 14.8239L191.7 15.642C193.018 15.9489 194.286 16.3636 195.501 16.8864C196.729 17.4091 197.825 18.0682 198.791 18.8636C199.768 19.6591 200.541 20.6193 201.109 21.7443C201.678 22.8693 201.962 24.1875 201.962 25.6989C201.962 27.7443 201.439 29.5455 200.393 31.1023C199.348 32.6477 197.837 33.858 195.859 34.733C193.893 35.5966 191.513 36.0284 188.717 36.0284C186.001 36.0284 183.643 35.608 181.643 34.767C179.655 33.9261 178.098 32.6989 176.973 31.0852C175.859 29.4716 175.257 27.5057 175.166 25.1875H181.388C181.479 26.4034 181.854 27.4148 182.513 28.2216C183.172 29.0284 184.03 29.6307 185.087 30.0284C186.155 30.4261 187.348 30.625 188.666 30.625C190.041 30.625 191.246 30.4205 192.28 30.0114C193.325 29.5909 194.143 29.0114 194.734 28.2727C195.325 27.5227 195.626 26.6477 195.638 25.6477C195.626 24.7386 195.359 23.9886 194.837 23.3977C194.314 22.7955 193.581 22.2955 192.638 21.8977C191.706 21.4886 190.615 21.125 189.365 20.8068L185.393 19.7841C182.518 19.0455 180.246 17.9261 178.575 16.4261C176.916 14.9148 176.087 12.9091 176.087 10.4091C176.087 8.35227 176.643 6.55114 177.757 5.00568C178.882 3.46023 180.411 2.26136 182.342 1.40909C184.274 0.545453 186.462 0.113635 188.905 0.113635C191.382 0.113635 193.553 0.545453 195.416 1.40909C197.291 2.26136 198.763 3.44886 199.831 4.97159C200.899 6.48295 201.45 8.22159 201.484 10.1875H195.399ZM206.065 5.89205V0.590908H233.918V5.89205H223.128V35.5H216.855V5.89205H206.065Z" fill="#1875FF"/>
</g>
<defs>
<filter id="filter0_d_1_1987" x="0.443359" y="0.113647" width="237.475" height="43.9147" filterUnits="userSpaceOnUse" color-interpolation-filters="sRGB">
<feFlood flood-opacity="0" result="BackgroundImageFix"/>
<feColorMatrix in="SourceAlpha" type="matrix" values="0 0 0 0 0 0 0 0 0 0 0 0 0 0 0 0 0 0 127 0" result="hardAlpha"/>
<feOffset dy="4"/>
<feGaussianBlur stdDeviation="2"/>
<feComposite in2="hardAlpha" operator="out"/>
<feColorMatrix type="matrix" values="0 0 0 0 0 0 0 0 0 0 0 0 0 0 0 0 0 0 0.25 0"/>
<feBlend mode="normal" in2="BackgroundImageFix" result="effect1_dropShadow_1_1987"/>
<feBlend mode="normal" in="SourceGraphic" in2="effect1_dropShadow_1_1987" result="shape"/>
</filter>
</defs>
</svg>
