<svg width="18" height="18" viewBox="0 0 18 18" fill="none" xmlns="http://www.w3.org/2000/svg">
<path fill-rule="evenodd" clip-rule="evenodd" d="M0.708008 8.94922C0.708008 13.6436 4.51359 17.4492 9.20801 17.4492C13.9024 17.4492 17.708 13.6436 17.708 8.94922C17.708 4.2548 13.9024 0.449219 9.20801 0.449219C4.51359 0.449219 0.708008 4.2548 0.708008 8.94922ZM2.40801 8.94922C2.40801 5.19368 5.45247 2.14922 9.20801 2.14922C12.9635 2.14922 16.008 5.19368 16.008 8.94922C16.008 12.7048 12.9635 15.7492 9.20801 15.7492C5.45247 15.7492 2.40801 12.7048 2.40801 8.94922ZM5.60176 9.79922C5.13232 9.79922 4.75176 9.41866 4.75176 8.94922C4.75176 8.47978 5.13232 8.09922 5.60176 8.09922H12.8143C13.2837 8.09922 13.6643 8.47978 13.6643 8.94922C13.6643 9.41866 13.2837 9.79922 12.8143 9.79922H5.60176Z" fill="white" fill-opacity="1"/>
</svg>
