<svg width="18" height="18" viewBox="0 0 18 18" fill="none" xmlns="http://www.w3.org/2000/svg">
<path fill-rule="evenodd" clip-rule="evenodd" d="M9.20801 17.4492C4.51359 17.4492 0.708008 13.6436 0.708008 8.94922C0.708008 4.2548 4.51359 0.449219 9.20801 0.449219C13.9024 0.449219 17.708 4.2548 17.708 8.94922C17.708 13.6436 13.9024 17.4492 9.20801 17.4492ZM9.20801 2.14922C5.45247 2.14922 2.40801 5.19368 2.40801 8.94922C2.40801 12.7048 5.45247 15.7492 9.20801 15.7492C12.9635 15.7492 16.008 12.7048 16.008 8.94922C16.008 5.19368 12.9635 2.14922 9.20801 2.14922ZM9.20839 4.49297C9.67784 4.49297 10.0584 4.87353 10.0584 5.34297V8.09922H12.8143C13.2837 8.09922 13.6643 8.47978 13.6643 8.94922C13.6643 9.41866 13.2837 9.79922 12.8143 9.79922H10.0584V12.5555C10.0584 13.0249 9.67784 13.4055 9.20839 13.4055C8.73895 13.4055 8.35839 13.0249 8.35839 12.5555V9.79922H5.60176C5.13232 9.79922 4.75176 9.41866 4.75176 8.94922C4.75176 8.47978 5.13232 8.09922 5.60176 8.09922H8.35839V5.34297C8.35839 4.87353 8.73895 4.49297 9.20839 4.49297Z" fill="white" fill-opacity="1"/>
</svg>
