<svg width="36" height="36" viewBox="0 0 36 36" fill="none" xmlns="http://www.w3.org/2000/svg">
<path d="M18.2091 0.640625C13.4564 0.640625 12.8599 0.661407 10.9933 0.746355C9.13025 0.831667 7.85858 1.12661 6.74587 1.55938C5.59488 2.00635 4.61853 2.60427 3.64582 3.57734C2.67238 4.55005 2.07447 5.52641 1.62603 6.67703C1.19217 7.7901 0.896862 9.06214 0.813008 10.9244C0.729883 12.7911 0.708008 13.3879 0.708008 18.1406C0.708008 22.8933 0.729154 23.488 0.813737 25.3546C0.899414 27.2177 1.19436 28.4893 1.62676 29.602C2.0741 30.753 2.67202 31.7294 3.64509 32.7021C4.61743 33.6755 5.59379 34.2749 6.74405 34.7219C7.85749 35.1546 9.12952 35.4496 10.9922 35.5349C12.8588 35.6198 13.4549 35.6406 18.2073 35.6406C22.9604 35.6406 23.555 35.6198 25.4217 35.5349C27.2847 35.4496 28.5578 35.1546 29.6712 34.7219C30.8219 34.2749 31.7968 33.6755 32.7691 32.7021C33.7425 31.7294 34.3405 30.753 34.7889 29.6024C35.2191 28.4893 35.5144 27.2173 35.6019 25.355C35.6858 23.4883 35.7076 22.8933 35.7076 18.1406C35.7076 13.3879 35.6858 12.7915 35.6019 10.9248C35.5144 9.06177 35.2191 7.7901 34.7889 6.6774C34.3405 5.52641 33.7425 4.55005 32.7691 3.57734C31.7957 2.60391 30.8222 2.00599 29.6701 1.55938C28.5545 1.12661 27.2821 0.831667 25.4191 0.746355C23.5524 0.661407 22.9582 0.640625 18.204 0.640625H18.2091ZM16.6392 3.79427C17.1051 3.79354 17.625 3.79427 18.2091 3.79427C22.8816 3.79427 23.4354 3.81104 25.2806 3.8949C26.9868 3.97292 27.9128 4.25802 28.5297 4.49755C29.3464 4.81474 29.9286 5.19391 30.5408 5.80641C31.1533 6.41891 31.5324 7.00224 31.8503 7.81891C32.0899 8.43505 32.3753 9.36109 32.453 11.0673C32.5369 12.9121 32.5551 13.4663 32.5551 18.1366C32.5551 22.8069 32.5369 23.3611 32.453 25.2059C32.375 26.9121 32.0899 27.8382 31.8503 28.4543C31.5332 29.271 31.1533 29.8525 30.5408 30.4646C29.9283 31.0771 29.3468 31.4563 28.5297 31.7735C27.9136 32.0141 26.9868 32.2985 25.2806 32.3765C23.4358 32.4604 22.8816 32.4786 18.2091 32.4786C13.5362 32.4786 12.9824 32.4604 11.1376 32.3765C9.43139 32.2978 8.50535 32.0127 7.88811 31.7731C7.07144 31.4559 6.48811 31.0768 5.87561 30.4643C5.26311 29.8518 4.88395 29.2699 4.56603 28.4529C4.3265 27.8367 4.04103 26.9107 3.96337 25.2044C3.87952 23.3596 3.86275 22.8055 3.86275 18.1322C3.86275 13.459 3.87952 12.9078 3.96337 11.063C4.04139 9.35672 4.3265 8.43068 4.56603 7.8138C4.88322 6.99714 5.26311 6.4138 5.87561 5.8013C6.48811 5.1888 7.07144 4.80964 7.88811 4.49172C8.50499 4.25109 9.43139 3.96672 11.1376 3.88833C12.752 3.81542 13.3776 3.79354 16.6392 3.7899V3.79427ZM27.5505 6.7C27.1351 6.7 26.729 6.82318 26.3837 7.05396C26.0383 7.28475 25.7692 7.61277 25.6102 7.99653C25.4513 8.3803 25.4098 8.80258 25.4909 9.20996C25.5719 9.61734 25.772 9.99152 26.0658 10.2852C26.3596 10.5788 26.7338 10.7788 27.1412 10.8597C27.5486 10.9407 27.9709 10.899 28.3546 10.7399C28.7383 10.5809 29.0662 10.3116 29.2969 9.96617C29.5276 9.62073 29.6506 9.21464 29.6505 8.79927C29.6505 7.6399 28.7098 6.69927 27.5505 6.69927V6.7ZM18.2091 9.15365C13.246 9.15365 9.22212 13.1776 9.22212 18.1406C9.22212 23.1037 13.246 27.1258 18.2091 27.1258C23.1722 27.1258 27.195 23.1037 27.195 18.1406C27.195 13.1776 23.1718 9.15365 18.2087 9.15365H18.2091ZM18.2091 12.3073C21.4306 12.3073 24.0424 14.9188 24.0424 18.1406C24.0424 21.3621 21.4306 23.974 18.2091 23.974C14.9873 23.974 12.3758 21.3621 12.3758 18.1406C12.3758 14.9188 14.9873 12.3073 18.2091 12.3073Z" fill="white" fill-opacity="0.5"/>
</svg>
