<svg width="36" height="30" viewBox="0 0 36 30" fill="none" xmlns="http://www.w3.org/2000/svg">
<path fill-rule="evenodd" clip-rule="evenodd" d="M3.11408 13.1215C12.5093 9.02811 18.7743 6.32952 21.9089 5.0257C30.8591 1.30302 32.7189 0.656347 33.931 0.634993C34.1976 0.630297 34.7937 0.696369 35.1799 1.00969C35.5059 1.27425 35.5956 1.63164 35.6386 1.88248C35.6815 2.13331 35.7349 2.70472 35.6924 3.1512C35.2074 8.24727 33.1088 20.6141 32.0411 26.3218C31.5894 28.7369 30.6998 29.5467 29.8386 29.6259C27.9671 29.7981 26.5459 28.3891 24.7332 27.2008C21.8967 25.3414 20.2942 24.184 17.5409 22.3696C14.3589 20.2727 16.4217 19.1202 18.235 17.2368C18.7096 16.7439 26.9558 9.24338 27.1154 8.56297C27.1353 8.47787 27.1538 8.16067 26.9654 7.99317C26.777 7.82568 26.4988 7.88295 26.2981 7.92851C26.0136 7.99308 21.4823 10.9881 12.704 16.9137C11.4178 17.7969 10.2528 18.2273 9.20898 18.2047C8.05826 18.1798 5.84474 17.5541 4.19922 17.0192C2.18091 16.3631 0.576805 16.0162 0.716487 14.902C0.789242 14.3217 1.58844 13.7282 3.11408 13.1215Z" fill="white" fill-opacity="0.5"/>
</svg>
