<svg width="36" height="42" viewBox="0 0 36 42" fill="none" xmlns="http://www.w3.org/2000/svg">
<path d="M31.3494 9.27703C31.0769 9.13616 30.8115 8.98174 30.5544 8.81434C29.8068 8.32006 29.1213 7.73765 28.5127 7.07965C26.99 5.3374 26.4213 3.5699 26.2118 2.3324H26.2202C26.0453 1.30522 26.1176 0.640625 26.1285 0.640625H19.1932V27.4584C19.1932 27.8185 19.1932 28.1743 19.178 28.526C19.178 28.5697 19.1738 28.6101 19.1713 28.6572C19.1713 28.6766 19.1713 28.6967 19.1671 28.7169C19.1671 28.722 19.1671 28.727 19.1671 28.7321C19.094 29.6943 18.7855 30.6238 18.2689 31.4388C17.7522 32.2539 17.0432 32.9294 16.2042 33.4061C15.3297 33.9036 14.3407 34.1646 13.3346 34.1633C10.1033 34.1633 7.48447 31.5284 7.48447 28.2744C7.48447 25.0204 10.1033 22.3856 13.3346 22.3856C13.9463 22.385 14.5542 22.4813 15.1358 22.6708L15.1442 15.6092C13.3787 15.3812 11.5851 15.5215 9.8765 16.0213C8.16793 16.5211 6.5815 17.3696 5.21727 18.5133C4.02189 19.5519 3.01693 20.7911 2.24761 22.1753C1.95485 22.68 0.850275 24.7083 0.716515 28.0002C0.632388 29.8686 1.19351 31.8044 1.46103 32.6044V32.6212C1.62928 33.0923 2.28126 34.7 3.34378 36.0553C4.20055 37.1424 5.2128 38.0974 6.34793 38.8895V38.8727L6.36475 38.8895C9.72223 41.171 13.4448 41.0212 13.4448 41.0212C14.0892 40.9952 16.2479 41.0213 18.6994 39.8595C21.4183 38.5715 22.9662 36.6526 22.9662 36.6526C23.9551 35.506 24.7415 34.1993 25.2915 32.7887C25.9191 31.1389 26.1285 29.1603 26.1285 28.3695V14.1421C26.2127 14.1925 27.3332 14.9337 27.3332 14.9337C27.3332 14.9337 28.9476 15.9684 31.4664 16.6423C33.2734 17.1218 35.708 17.2228 35.708 17.2228V10.3379C34.855 10.4304 33.1228 10.1612 31.3494 9.27703Z" fill="white" fill-opacity="0.5"/>
</svg>
