<svg width="36" height="29" viewBox="0 0 36 29" fill="none" xmlns="http://www.w3.org/2000/svg">
<path d="M32.1248 7.38371C32.1462 7.69226 32.1462 8.00081 32.1462 8.31221C32.1462 17.8005 24.9229 28.7435 11.7149 28.7435V28.7378C7.81323 28.7435 3.99259 27.6258 0.708008 25.5186C1.27534 25.5868 1.84553 25.621 2.41713 25.6224C5.65052 25.6252 8.79149 24.5403 11.3353 22.5426C8.26255 22.4843 5.56805 20.4808 4.62676 17.556C5.70313 17.7636 6.81221 17.7209 7.86868 17.4323C4.51869 16.7554 2.10858 13.8121 2.10858 10.3939V10.3029C3.10675 10.8588 4.22436 11.1674 5.36757 11.2015C2.21238 9.09283 1.2398 4.89539 3.14514 1.61365C6.79088 6.09974 12.1699 8.82694 17.9442 9.11558C17.3655 6.62157 18.1561 4.00813 20.0216 2.25493C22.9138 -0.46374 27.4624 -0.324394 30.1811 2.56632C31.7893 2.24924 33.3306 1.65915 34.7411 0.823077C34.2051 2.48527 33.0832 3.89722 31.5845 4.79444C33.0078 4.62665 34.3984 4.24558 35.708 3.66403C34.744 5.10868 33.5297 6.36705 32.1248 7.38371Z" fill="white" fill-opacity="0.5"/>
</svg>
