<svg width="36" height="26" viewBox="0 0 36 26" fill="none" xmlns="http://www.w3.org/2000/svg">
<path d="M34.9767 4.6611C34.5742 3.14546 33.3883 1.95183 31.8822 1.54674C29.1529 0.810547 18.208 0.810547 18.208 0.810547C18.208 0.810547 7.26322 0.810547 4.53381 1.54674C3.02771 1.95183 1.84153 3.14546 1.43928 4.6611C0.708008 7.40827 0.708008 13.1402 0.708008 13.1402C0.708008 13.1402 0.708008 18.8718 1.43928 21.6193C1.84153 23.135 3.02771 24.3284 4.53366 24.7339C7.26307 25.4698 18.2079 25.4698 18.2079 25.4698C18.2079 25.4698 29.1528 25.4698 31.8821 24.7339C33.3882 24.3285 34.574 23.135 34.9766 21.6194C35.708 18.8719 35.708 13.1403 35.708 13.1403C35.708 13.1403 35.708 7.40841 34.9766 4.66125" fill="white" fill-opacity="0.5"/>
<path d="M14.6289 18.3447L23.7766 13.1409L14.6289 7.93652V18.3447Z" fill="#0B1016"/>
</svg>
