<svg width="21" height="21" viewBox="0 0 21 21" fill="none" xmlns="http://www.w3.org/2000/svg">
<path fill-rule="evenodd" clip-rule="evenodd" d="M0.398438 10.0781C0.398438 15.601 4.87559 20.0781 10.3984 20.0781C15.9213 20.0781 20.3984 15.601 20.3984 10.0781C20.3984 4.55528 15.9213 0.078125 10.3984 0.078125C4.87559 0.078125 0.398438 4.55528 0.398438 10.0781ZM2.39844 10.0781C2.39844 5.65985 5.98016 2.07812 10.3984 2.07812C14.8167 2.07812 18.3984 5.65985 18.3984 10.0781C18.3984 14.4964 14.8167 18.0781 10.3984 18.0781C5.98016 18.0781 2.39844 14.4964 2.39844 10.0781ZM10.946 11.1441C10.89 11.5081 10.596 11.8301 10.19 11.8301H10.078C9.67203 11.8301 9.37803 11.5221 9.32203 11.1441L9.18203 10.1921C9.11203 9.73013 9.37803 9.40812 9.82603 9.35213C11.044 9.19812 11.604 8.82012 11.604 8.13412V8.10612C11.604 7.47612 11.128 7.11212 10.316 7.11212C9.71403 7.11212 9.19603 7.29412 8.69203 7.67212C8.52403 7.79812 8.30003 7.89612 8.06203 7.89612C7.53003 7.89612 7.08203 7.44812 7.08203 6.91612C7.08203 6.65012 7.19403 6.37012 7.44603 6.16012C8.18803 5.54412 9.12603 5.15212 10.358 5.15212C12.374 5.15212 13.746 6.18812 13.746 8.05012V8.07812C13.746 9.85612 12.514 10.5841 10.988 10.8921L10.946 11.1441ZM8.86003 13.9721V13.9441C8.86003 13.2721 9.37803 12.7541 10.078 12.7541C10.778 12.7541 11.296 13.2721 11.296 13.9441V13.9721C11.296 14.6441 10.778 15.1621 10.078 15.1621C9.37803 15.1621 8.86003 14.6441 8.86003 13.9721Z" fill="white"/>
</svg>
