<svg width="21" height="26" viewBox="0 0 21 26" fill="none" xmlns="http://www.w3.org/2000/svg">
<path fill-rule="evenodd" clip-rule="evenodd" d="M9.52063 0.245601C11.155 -0.39021 12.8984 0.86317 12.8984 2.67396V16.4934V22.4834C12.8984 24.1706 11.37 25.4086 9.7921 24.9994L2.2921 23.0543C1.17918 22.7657 0.398438 21.7283 0.398438 20.5382V5.59165C0.398438 4.51056 1.04487 3.54288 2.02063 3.16328L9.52063 0.245601ZM10.3984 2.67397L2.89844 5.59165L2.89844 20.5382L10.3984 22.4834V16.4934V2.67397ZM6.64843 12.4735C6.64843 11.7573 7.20808 11.1767 7.89843 11.1767C8.58879 11.1767 9.14843 11.7573 9.14843 12.4735C9.14843 13.1897 8.58879 13.7702 7.89843 13.7702C7.20808 13.7702 6.64843 13.1897 6.64843 12.4735ZM15.3984 2.09951C14.7081 2.09951 14.1484 2.68008 14.1484 3.39625C14.1484 4.11243 14.7081 4.693 15.3984 4.693H17.8984V15.6001V20.254H15.3984C14.7081 20.254 14.1484 20.8345 14.1484 21.5507C14.1484 22.2669 14.7081 22.8475 15.3984 22.8475H17.8984C19.2791 22.8475 20.3984 21.6863 20.3984 20.254V15.6001V4.693C20.3984 3.26066 19.2792 2.09951 17.8984 2.09951H15.3984Z" fill="white" fill-opacity="1"/>
</svg>
