<svg width="21" height="24" viewBox="0 0 21 24" fill="none" xmlns="http://www.w3.org/2000/svg">
<path fill-rule="evenodd" clip-rule="evenodd" d="M8.73177 20.9632C8.73177 22.1925 7.73685 23.189 6.50955 23.189H3.73177C1.89082 23.189 0.398438 21.6942 0.398438 19.8502V10.4581C0.398438 9.5226 0.790249 8.63003 1.47849 7.99766L8.17455 1.84518C9.41193 0.708258 11.3004 0.670713 12.5819 1.75756L19.2191 7.38691C19.9671 8.02129 20.3984 8.95324 20.3984 9.93495V19.8502C20.3984 21.6942 18.906 23.189 17.0651 23.189H14.2873C13.06 23.189 12.0651 22.1925 12.0651 20.9632V15.4392H8.73177V20.9632ZM11.1458 3.45625C10.7187 3.09397 10.0892 3.10649 9.67674 3.48546L2.98068 9.63793C2.75126 9.84872 2.62066 10.1462 2.62066 10.4581V19.8502C2.62066 20.4649 3.11812 20.9632 3.73177 20.9632H6.50955V14.3263C6.50955 13.7116 7.00701 13.2134 7.62066 13.2134H13.1762C13.7899 13.2134 14.2873 13.7116 14.2873 14.3263V20.9632H17.0651C17.6788 20.9632 18.1762 20.4649 18.1762 19.8502V9.93495C18.1762 9.60771 18.0324 9.29706 17.7831 9.0856L11.1458 3.45625Z" fill="white"/>
</svg>
