<svg width="21" height="19" viewBox="0 0 21 19" fill="none" xmlns="http://www.w3.org/2000/svg">
<path fill-rule="evenodd" clip-rule="evenodd" d="M1.39844 0.078125C0.846153 0.078125 0.398438 0.52584 0.398438 1.07812C0.398438 1.63041 0.846153 2.07812 1.39844 2.07812V1.07812L1.39845 2.07812H1.39849H1.39865H1.39877H1.39892H1.39909H1.39929H1.40034H1.40181H1.4027H1.40318H1.40369H1.40597H1.40866H1.40939H1.41015H1.41174H1.4502H1.59375H2.08594H2.60021L4.9233 12.2997C5.04308 12.8268 5.55876 13.1611 6.08548 13.0605C6.14636 13.0721 6.20919 13.0781 6.27344 13.0781H16.3984C16.8153 13.0781 17.1884 12.8196 17.3348 12.4292L20.3348 4.42925C20.4499 4.12215 20.4072 3.7781 20.2204 3.50853C20.0335 3.23896 19.7264 3.07812 19.3984 3.07812H4.87848L4.37357 0.856504C4.2701 0.401215 3.86534 0.078125 3.39844 0.078125H2.08594H1.59375H1.4502H1.44409H1.43834H1.43697H1.43561H1.43297H1.42796H1.41908H1.41808H1.4171H1.41615H1.41522H1.41431H1.41343H1.41174H1.40597H1.40369H1.40318H1.4027H1.40181H1.39929H1.39892H1.39877H1.39865H1.39849H1.39845L1.39844 1.07812V0.078125ZM5.33303 5.07812L6.69667 11.0781H15.7054L17.9554 5.07812H5.33303ZM8.39844 14.0781C7.29387 14.0781 6.39844 14.9736 6.39844 16.0781C6.39844 17.1827 7.29387 18.0781 8.39844 18.0781C9.50301 18.0781 10.3984 17.1827 10.3984 16.0781C10.3984 14.9736 9.50301 14.0781 8.39844 14.0781ZM12.3984 16.0781C12.3984 14.9736 13.2939 14.0781 14.3984 14.0781C15.503 14.0781 16.3984 14.9736 16.3984 16.0781C16.3984 17.1827 15.503 18.0781 14.3984 18.0781C13.2939 18.0781 12.3984 17.1827 12.3984 16.0781Z" fill="white"/>
</svg>
