<svg width="21" height="21" viewBox="0 0 21 21" fill="none" xmlns="http://www.w3.org/2000/svg">
<path fill-rule="evenodd" clip-rule="evenodd" d="M10.3984 0.078125C5.62905 0.078125 2.82546 3.63352 2.44342 7.23334C1.25479 7.6322 0.398438 8.75516 0.398438 10.0781V12.0781C0.398438 13.735 1.74158 15.0781 3.39844 15.0781C5.05529 15.0781 6.39844 13.735 6.39844 12.0781V10.0781C6.39844 8.89546 5.71409 7.87263 4.71978 7.38404C4.98391 4.80228 6.72985 2.07812 10.3984 2.07812C14.067 2.07812 15.813 4.80229 16.0771 7.38404C15.0828 7.87263 14.3984 8.89546 14.3984 10.0781V12.0781C14.3984 12.9666 14.7847 13.7649 15.3984 14.3142V15.6985C15.3984 17.0127 14.333 18.0781 13.0188 18.0781H12.3984C11.8462 18.0781 11.3984 18.5258 11.3984 19.0781C11.3984 19.6304 11.8462 20.0781 12.3984 20.0781H13.0188C15.4376 20.0781 17.3984 18.1173 17.3984 15.6985V15.0781C19.0553 15.0781 20.3984 13.735 20.3984 12.0781V10.0781C20.3984 8.75516 19.5421 7.6322 18.3535 7.23334C17.9714 3.63352 15.1678 0.078125 10.3984 0.078125ZM4.39844 10.0781C4.39844 9.52584 3.95072 9.07812 3.39844 9.07812C2.84615 9.07812 2.39844 9.52584 2.39844 10.0781V12.0781C2.39844 12.6304 2.84615 13.0781 3.39844 13.0781C3.95072 13.0781 4.39844 12.6304 4.39844 12.0781V10.0781ZM17.3984 9.07812C17.9507 9.07812 18.3984 9.52584 18.3984 10.0781V12.0781C18.3984 12.6304 17.9507 13.0781 17.3984 13.0781C16.8462 13.0781 16.3984 12.6304 16.3984 12.0781V10.0781C16.3984 9.52584 16.8462 9.07812 17.3984 9.07812Z" fill="white"/>
</svg>
